<?xml version="1.0" standalone="no"?>
<!DOCTYPE svg PUBLIC "-//W3C//DTD SVG 20010904//EN"
 "http://www.w3.org/TR/2001/REC-SVG-20010904/DTD/svg10.dtd">
<svg version="1.0" xmlns="http://www.w3.org/2000/svg"
 width="300.000000pt" height="300.000000pt" viewBox="0 0 300.000000 300.000000"
 preserveAspectRatio="xMidYMid meet">
<metadata>
Created by potrace 1.10, written by Peter Selinger 2001-2011
</metadata>
<g transform="translate(0.000000,300.000000) scale(0.100000,-0.100000)"
fill="#000000" stroke="none">
<path d="M1305 2974 c-11 -3 -56 -12 -100 -20 -281 -53 -531 -190 -751 -408
-218 -218 -347 -455 -411 -756 -26 -121 -26 -459 0 -579 63 -292 191 -533 395
-743 214 -219 470 -360 772 -425 121 -26 459 -26 579 0 305 66 539 193 757
411 219 220 345 453 411 757 14 66 18 129 18 289 0 229 -10 296 -71 480 -141
423 -502 784 -927 925 -176 58 -242 68 -457 71 -107 1 -204 0 -215 -2z m178
-190 l-2 -167 -43 -3 c-69 -5 -150 -15 -163 -20 -7 -3 -16 19 -23 56 -15 69
-6 68 -142 23 -126 -41 -276 -121 -379 -202 l-25 -19 38 -47 39 -47 -29 -29
-29 -29 -119 119 -118 119 47 43 c227 211 592 360 900 368 l50 1 -2 -166z
m309 136 c242 -49 502 -180 673 -339 l47 -43 -118 -119 -117 -118 -49 44
c-167 150 -418 253 -651 268 l-58 4 -2 168 -2 167 90 -6 c50 -4 134 -16 187
-26z m-548 -312 c10 -46 33 -150 52 -233 18 -82 45 -204 59 -270 26 -119 42
-188 86 -380 13 -55 25 -92 27 -82 3 16 -18 131 -34 190 -4 13 1 17 23 17 l28
0 0 -150 c0 -103 3 -150 10 -150 26 0 55 53 103 185 28 77 73 200 101 274 28
73 51 139 51 147 0 8 4 14 8 14 4 0 13 19 19 43 7 23 20 62 30 85 l19 44 101
-52 c56 -29 107 -58 113 -65 8 -10 -30 -65 -161 -231 -95 -121 -195 -247 -222
-282 -27 -34 -46 -62 -42 -62 4 0 -13 -22 -39 -50 -40 -43 -59 -80 -40 -80 4
0 56 48 116 108 106 103 110 106 125 87 26 -34 62 -118 69 -162 6 -39 5 -41
-15 -36 -16 4 -21 13 -21 39 0 19 -3 34 -6 34 -4 0 -59 -14 -123 -32 -93 -25
-121 -38 -143 -61 -23 -26 -25 -32 -13 -44 20 -19 185 -230 185 -236 0 -6
-115 -57 -128 -57 -14 0 -17 12 -42 160 -17 98 -26 129 -42 141 -26 21 -52 14
-81 -20 -12 -14 -57 -60 -100 -100 -68 -65 -80 -73 -92 -60 -13 13 -7 20 47
57 79 52 120 86 95 78 -11 -3 -16 -2 -12 4 3 6 12 10 18 10 13 0 67 39 55 40
-4 0 -61 -26 -127 -59 l-120 -58 -11 30 c-5 16 -10 35 -10 41 0 6 47 19 108
29 176 28 205 38 208 67 2 20 -20 47 -108 133 -125 122 -123 111 -20 162 60
29 75 62 20 43 -54 -19 -99 -49 -92 -61 4 -7 0 -5 -9 3 -18 17 -457 550 -457
554 0 1 6 3 13 3 7 0 35 16 63 36 69 50 195 112 282 139 40 12 72 28 72 35 0
7 -7 13 -15 13 -8 0 -15 -5 -15 -11 0 -5 -5 -7 -10 -4 -26 16 -230 -76 -339
-153 l-64 -45 -32 39 c-24 28 -30 43 -23 51 17 22 169 115 237 146 53 24 217
83 241 86 3 1 14 -36 24 -81z m239 -191 l2 -165 -58 -7 c-32 -3 -64 -8 -70
-11 -8 -3 -23 45 -45 147 -19 83 -36 157 -38 164 -4 8 6 16 27 20 33 7 172 22
177 19 2 -1 4 -76 5 -167z m214 148 c170 -32 343 -111 478 -218 41 -33 75 -63
75 -66 0 -3 -53 -59 -118 -124 l-118 -118 -21 23 -22 23 55 67 55 68 -58 36
c-49 32 -193 104 -206 104 -3 0 -17 -34 -32 -75 -15 -41 -30 -75 -34 -75 -3 0
-30 7 -59 14 -29 8 -81 18 -115 21 l-62 7 0 164 0 164 51 0 c29 0 88 -7 131
-15z m-1115 -172 l117 -116 -44 -49 c-150 -167 -255 -421 -268 -651 l-3 -58
-168 -2 -168 -2 6 90 c19 259 116 526 264 733 52 73 131 169 142 171 3 1 57
-52 122 -116z m2000 71 c201 -217 341 -546 364 -859 l7 -90 -169 3 -169 3 -3
62 c-11 222 -119 483 -267 644 l-44 48 117 118 c64 64 118 117 119 117 1 0 22
-21 45 -46z m-1659 -275 c90 -110 95 -118 79 -133 -17 -14 -26 -7 -137 105
l-120 120 30 24 c23 19 32 22 41 12 6 -6 54 -64 107 -128z m-81 -56 l117 -117
-33 -36 c-18 -20 -48 -62 -66 -92 l-34 -56 -125 63 c-178 88 -164 87 -195 13
-38 -90 -66 -209 -73 -310 -3 -49 -10 -88 -15 -88 -9 0 -4 73 13 178 16 106
58 222 115 324 50 88 158 238 173 238 3 0 58 -53 123 -117z m1505 42 c135
-171 233 -426 233 -609 l0 -51 -164 0 -164 0 -7 60 c-8 77 -29 159 -56 221
-27 61 -99 173 -128 198 l-22 20 118 118 c65 65 121 118 124 118 3 0 33 -34
66 -75z m-867 -125 l0 -170 -28 0 -29 0 -35 158 c-19 86 -33 159 -31 162 3 3
61 13 111 19 9 1 12 -39 12 -169z m194 144 c33 -8 62 -16 64 -18 2 -2 -22 -74
-54 -160 -46 -126 -61 -155 -73 -150 -9 3 -33 8 -53 11 l-38 6 0 168 0 169 48
-6 c26 -3 74 -12 106 -20z m200 -295 c-67 -67 -124 -117 -126 -113 -3 5 42 69
100 142 l106 133 20 -21 21 -20 -121 -121z m-719 8 c54 -65 96 -120 93 -122
-2 -2 -57 49 -123 115 -104 104 -117 121 -105 135 16 19 3 31 135 -128z m-52
-35 c105 -106 116 -120 102 -132 -9 -7 -23 -26 -31 -41 l-14 -28 -140 70 c-78
38 -145 69 -150 69 -13 0 -13 6 1 33 19 37 100 147 107 147 4 0 60 -53 125
-118z m971 54 c78 -109 124 -227 140 -358 l6 -48 -170 0 -170 0 0 25 c0 41
-38 137 -69 175 l-29 35 116 118 c64 64 120 117 124 117 4 0 27 -29 52 -64z
m-1298 -87 c126 -61 281 -136 344 -166 63 -30 157 -75 208 -100 52 -24 96 -42
99 -39 3 3 -48 31 -113 63 -66 32 -121 59 -123 60 -7 4 41 74 50 71 4 -2 52
-46 106 -99 59 -58 104 -94 113 -92 13 4 13 3 0 -7 -13 -10 -13 -12 0 -18 15
-6 -14 -12 -240 -51 -337 -58 -414 -72 -420 -76 -9 -6 -24 81 -16 94 3 5 35 9
71 9 35 0 69 3 74 6 5 4 12 3 15 -2 7 -12 157 -5 170 8 11 11 -41 14 -233 10
-65 -1 -87 -5 -96 -17 -7 -9 -17 -13 -23 -9 -14 8 -14 -3 -6 -56 4 -21 10 -35
15 -32 5 3 9 1 9 -4 0 -11 -311 -65 -321 -55 -15 16 -22 207 -10 298 16 123
71 315 91 315 4 0 110 -50 236 -111z m836 -6 c5 -2 2 -16 -6 -31 -7 -15 -28
-70 -46 -122 -18 -52 -36 -98 -39 -102 -3 -4 -6 56 -6 133 l0 140 45 -6 c25
-4 48 -9 52 -12z m73 -128 c-26 -30 -52 -55 -57 -55 -5 0 14 27 43 60 29 33
54 58 57 56 2 -3 -17 -30 -43 -61z m101 -170 c14 -13 7 -15 -60 -15 -41 0 -77
4 -80 9 -4 5 2 7 12 4 10 -2 34 0 53 5 48 14 59 14 75 -3z m-159 -11 c-3 -3
-12 -4 -19 -1 -8 3 -5 6 6 6 11 1 17 -2 13 -5z m46 -21 c-13 -2 -33 -2 -45 0
-13 2 -3 4 22 4 25 0 35 -2 23 -4z m100 0 c-7 -2 -21 -2 -30 0 -10 3 -4 5 12
5 17 0 24 -2 18 -5z m-1386 -80 c13 -230 118 -484 268 -651 l44 -49 -118 -117
-119 -118 -43 47 c-202 218 -342 546 -365 860 l-6 90 168 -2 168 -2 3 -58z
m47 -20 c3 -48 8 -89 11 -91 2 -2 69 8 149 22 79 14 151 26 159 26 9 0 17 -15
21 -41 13 -84 92 -236 157 -304 l29 -31 -120 -119 -121 -120 -34 40 c-85 97
-169 244 -211 367 -37 110 -74 338 -55 338 5 0 11 -39 15 -87z m1411 42 c-6
-38 -53 -155 -62 -155 -7 0 -242 184 -243 190 0 3 70 5 156 5 l156 0 -7 -40z
m735 -11 c0 -160 -85 -406 -193 -557 l-32 -45 -132 104 -131 104 35 53 c65 96
105 207 118 332 l7 60 164 0 164 0 0 -51z m366 -36 c-24 -317 -162 -644 -365
-863 l-43 -47 -74 73 -74 73 28 31 c68 74 67 67 12 108 l-50 37 46 68 c107
158 176 358 186 537 l3 60 165 5 c91 3 167 7 169 8 2 1 1 -40 -3 -90z m-732
35 c-14 -118 -75 -281 -131 -350 l-18 -21 -122 97 c-68 54 -125 100 -128 103
-3 3 8 31 25 64 16 32 33 80 36 107 l7 47 168 0 169 0 -6 -47z m-733 5 c-5
-13 -21 -80 -36 -151 -31 -142 -26 -137 -105 -96 -85 43 -87 35 30 157 58 60
108 110 112 111 4 0 4 -9 -1 -21z m-348 -35 c3 -16 8 -37 11 -48 5 -17 -9 -27
-99 -69 -114 -54 -113 -52 -78 -119 l14 -27 103 69 c98 66 105 69 120 53 14
-17 7 -26 -102 -135 -64 -64 -120 -117 -124 -117 -4 0 -27 29 -52 64 -51 70
-97 164 -120 243 l-14 51 71 12 c40 7 113 20 162 30 50 10 93 18 96 19 4 1 9
-11 12 -26z m364 -5 c-3 -8 -6 -5 -6 6 -1 11 2 17 5 13 3 -3 4 -12 1 -19z
m-162 3 c-19 -16 -323 -221 -338 -226 -10 -4 -18 3 -25 23 -10 29 -10 29 87
77 107 54 110 55 129 41 10 -7 13 -6 10 7 -2 12 16 26 67 51 76 37 84 41 70
27z m151 -62 c-3 -17 -1 -39 4 -50 8 -14 7 -19 -2 -19 -9 0 -9 -3 -2 -8 6 -4
14 -15 17 -26 6 -14 4 -17 -9 -12 -14 6 -16 1 -10 -34 6 -37 5 -40 -18 -40
-13 0 -27 -6 -30 -12 -8 -18 24 161 40 220 7 26 16 10 10 -19z m49 -85 c18
-111 18 -104 -2 -105 -15 -1 -14 -2 2 -7 20 -5 20 -5 0 -13 -19 -7 -19 -8 1
-8 19 -1 23 -11 38 -98 9 -54 23 -129 31 -167 21 -99 20 -106 -14 -106 -17 0
-32 4 -35 8 -3 5 8 6 25 4 22 -3 29 0 29 13 0 14 -6 16 -42 10 -47 -8 -67 -26
-40 -36 15 -6 -33 -6 -142 -1 -46 2 -46 -11 5 219 l34 153 33 0 c32 0 32 0 34
-52 2 -94 4 -107 10 -113 4 -4 6 31 6 77 0 80 -1 83 -26 95 -16 7 -20 12 -11
13 9 0 24 9 34 20 16 17 17 31 11 107 -3 48 -4 84 -1 81 3 -3 12 -45 20 -94z
m228 13 c-3 -5 -6 -7 -7 -5 0 2 -17 21 -36 42 l-35 39 42 -34 c23 -18 39 -37
36 -42z m-26 -17 c-4 16 -3 20 5 12 6 -6 17 -8 26 -5 11 5 13 2 7 -8 -6 -11
-5 -11 4 -3 10 9 43 -12 141 -90 71 -55 129 -105 129 -110 1 -5 -7 -18 -16
-28 -16 -18 -16 -18 2 -12 14 6 16 4 10 -7 -4 -8 2 -4 15 7 l22 22 110 -89
c60 -49 118 -95 129 -103 19 -13 20 -16 5 -38 -9 -14 -13 -28 -9 -33 5 -4 3
-5 -4 -1 -6 3 -15 1 -19 -6 -16 -25 -2 -73 29 -105 17 -18 29 -34 26 -35 -2
-2 -21 -18 -41 -37 l-36 -33 -34 37 c-42 48 -53 66 -36 60 8 -3 27 8 43 25 23
24 25 30 10 24 -18 -7 -19 -6 -5 12 8 10 -2 4 -23 -14 -21 -17 -41 -32 -45
-32 -4 1 -29 31 -57 68 -27 36 -73 94 -102 128 l-52 61 22 23 c12 12 16 19 8
15 -11 -6 -13 -4 -7 10 7 18 6 18 -13 1 -11 -10 -18 -23 -15 -27 3 -5 3 -9 1
-9 -3 0 -24 26 -48 58 -23 31 -73 94 -110 138 -52 63 -65 84 -56 93 9 9 8 11
-4 6 -11 -4 -27 9 -54 42 l-37 48 42 -44 c34 -34 42 -39 37 -21z m-369 -109
c30 -10 41 -19 38 -30 -3 -9 -19 -82 -37 -164 -37 -167 -23 -155 -132 -112
-66 26 -146 73 -197 115 l-35 29 119 119 119 120 41 -32 c23 -17 60 -38 84
-45z m471 -81 l99 -125 -21 -18 c-33 -26 -175 -94 -233 -111 l-51 -14 -27 155
c-14 85 -27 159 -29 164 -1 5 21 18 50 29 29 10 62 25 75 34 12 9 26 15 31 13
4 -1 52 -58 106 -127z m-738 -193 c57 -36 153 -79 202 -91 18 -4 27 -12 24
-20 -6 -14 50 -26 119 -26 l33 0 3 -155 3 -155 -51 0 c-198 0 -473 112 -649
265 l-40 34 120 121 119 120 31 -29 c16 -16 55 -45 86 -64z m869 36 c0 -5 45
-64 99 -133 l99 -125 -45 -32 c-151 -108 -397 -193 -557 -193 l-51 0 3 154 3
154 59 6 c38 4 60 12 60 19 0 7 24 18 54 24 62 13 186 71 231 108 31 25 45 31
45 18z m445 -141 l37 -34 -33 -36 c-19 -20 -35 -39 -36 -41 -6 -10 -80 66 -80
81 1 9 4 15 8 13 11 -8 51 43 44 56 -11 17 15 0 60 -39z m-1532 -192 c158
-105 356 -172 540 -183 l58 -4 2 -168 2 -167 -90 6 c-314 23 -642 163 -860
365 l-47 43 118 119 117 118 49 -44 c27 -25 77 -63 111 -85z m1362 -23 l20
-27 51 44 51 45 73 -74 72 -73 -42 -38 c-232 -211 -548 -346 -865 -370 l-90
-6 2 168 2 168 58 3 c185 11 389 81 543 186 l65 45 20 -22 c11 -12 29 -34 40
-49z"/>
<path d="M1250 2206 c-55 -21 -142 -66 -178 -93 -24 -18 -31 -28 -23 -36 8 -8
15 -7 24 2 10 11 9 12 -2 6 -10 -5 -12 -4 -7 4 4 6 11 9 16 6 5 -3 30 7 57 23
55 32 149 72 169 72 8 0 14 7 14 15 0 18 -23 18 -70 1z"/>
<path d="M1778 2178 c-2 -6 16 -22 41 -36 25 -13 60 -32 76 -42 19 -12 36 -16
44 -11 10 7 3 16 -27 36 -23 15 -46 24 -53 19 -7 -4 -10 -3 -6 3 3 5 -10 17
-29 26 -41 20 -41 20 -46 5z"/>
<path d="M1647 1836 c-6 -15 48 -50 63 -41 17 11 11 21 -24 38 -27 12 -35 13
-39 3z"/>
<path d="M1280 1762 c0 -4 14 -21 32 -38 l31 -29 -22 32 c-23 35 -41 50 -41
35z"/>
<path d="M791 1738 c-17 -53 -40 -173 -41 -215 0 -7 6 -10 14 -7 8 3 18 34 25
80 6 41 20 101 31 134 24 71 24 70 6 70 -9 0 -23 -25 -35 -62z"/>
<path d="M1140 1626 c-19 -52 -24 -106 -8 -106 17 0 43 109 28 124 -6 6 -13
-1 -20 -18z"/>
<path d="M498 1513 c-23 -3 -38 -9 -38 -18 0 -10 30 -13 140 -14 120 -2 140 0
140 14 0 12 -15 15 -89 15 -49 0 -95 1 -103 3 -7 2 -30 2 -50 0z"/>
<path d="M1175 1510 c-3 -5 -2 -10 4 -10 5 0 13 5 16 10 3 6 2 10 -4 10 -5 0
-13 -4 -16 -10z"/>
<path d="M1366 1513 c-1 -2 -37 -4 -79 -5 -51 -2 -78 -7 -82 -15 -5 -16 -1
-16 105 -2 81 10 150 31 87 27 -15 -2 -29 -4 -31 -5z"/>
<path d="M1491 918 c-18 -35 -6 -146 14 -126 3 3 5 38 3 78 -3 69 -4 72 -17
48z"/>
<path d="M1360 775 c0 -10 11 -15 35 -15 24 0 35 5 35 15 0 10 -11 15 -35 15
-24 0 -35 -5 -35 -15z"/>
<path d="M1440 765 c0 -10 9 -15 28 -14 15 0 21 3 14 6 -6 2 -10 9 -6 14 3 5
-4 9 -15 9 -12 0 -21 -7 -21 -15z"/>
<path d="M1774 1219 c-4 -7 40 -58 104 -122 89 -89 114 -109 124 -99 10 10
-10 35 -97 122 -60 61 -113 110 -117 110 -4 0 -10 -5 -14 -11z m137 -126 c13
-16 12 -17 -3 -4 -17 13 -22 21 -14 21 2 0 10 -8 17 -17z m80 -80 c13 -16 12
-17 -3 -4 -17 13 -22 21 -14 21 2 0 10 -8 17 -17z"/>
<path d="M2030 950 c5 -8 56 -62 114 -120 84 -83 108 -102 118 -92 10 10 -10
35 -96 121 -63 64 -117 109 -127 108 -13 -1 -15 -5 -9 -17z"/>
</g>
</svg>
